<svg width="32" height="70" viewBox="0 0 32 70" fill="none" xmlns="http://www.w3.org/2000/svg">
<path d="M25.364 43.713C24.6941 42.5552 23.4471 41.836 22.1097 41.836H17.1584V38.8657C19.493 38.4096 21.3283 36.4293 21.5172 33.9853C21.5608 33.4206 21.1384 32.9276 20.5739 32.8839C20.0056 32.8385 19.5161 33.2627 19.4725 33.8271C19.3387 35.5582 17.872 36.9141 16.133 36.9141C14.286 36.9141 12.7834 35.4115 12.7834 33.5645C12.7834 31.7174 14.286 30.2149 16.133 30.2149C16.7222 30.2149 17.301 30.3696 17.8072 30.6623C18.2974 30.9458 18.9247 30.7784 19.2081 30.2881C19.4917 29.798 19.3242 29.1707 18.8339 28.8872C18.3138 28.5864 17.7466 28.3765 17.1584 28.2631V25.2723C18.5437 24.8358 19.551 23.5393 19.551 22.0117C19.551 20.4819 18.5407 19.1836 17.1521 18.7489L17.1728 16.6178C17.1761 16.2761 17.4179 15.9876 17.7608 15.916C21.4519 15.1461 24.1311 11.8338 24.1311 8.04031C24.1311 3.68472 20.4823 0.00274902 16.1632 -0.00012207C16.1615 -0.00012207 16.1602 -0.00012207 16.1586 -0.00012207C13.0454 1.46484e-05 10.1461 1.97478 8.77196 5.03195C8.53981 5.54847 8.77032 6.1555 9.28684 6.38765C9.8035 6.61939 10.4103 6.38943 10.6425 5.87277C11.6864 3.55074 13.8512 2.0508 16.1586 2.0508H16.1619C19.02 2.05271 22.0803 4.45978 22.0803 8.04044C22.0803 10.8681 20.0876 13.336 17.342 13.9087C16.0479 14.1787 15.135 15.2845 15.1221 16.5981L15.1012 18.7535C13.7193 19.1919 12.7151 20.4866 12.7151 22.0117C12.7151 23.5393 13.7224 24.8358 15.1076 25.2723V28.2629C12.6187 28.7435 10.7326 30.9373 10.7326 33.5645C10.7326 36.1917 12.6187 38.3854 15.1076 38.866V41.836H10.1564C8.81899 41.836 7.57198 42.5552 6.90192 43.713L0.930044 54.0354C0.258345 55.1967 0.258345 56.6395 0.930044 57.8009L6.90206 68.1231C7.57198 69.2807 8.81899 70 10.1564 70H22.1097C23.4471 70 24.6941 69.2807 25.3641 68.123L31.336 57.8006C32.0077 56.6393 32.0077 55.1965 31.336 54.0351L25.364 43.713ZM16.133 20.6445C16.8869 20.6445 17.5002 21.2579 17.5002 22.0117C17.5002 22.7656 16.8869 23.3789 16.133 23.3789C15.3792 23.3789 14.7658 22.7656 14.7658 22.0117C14.7658 21.2579 15.3792 20.6445 16.133 20.6445ZM29.5607 56.7738L23.589 67.0961C23.2844 67.6223 22.7175 67.9492 22.1097 67.9492H10.1564C9.54852 67.9492 8.98155 67.6222 8.67721 67.0961L2.70534 56.774C2.40004 56.246 2.40004 55.5901 2.70534 55.0621L8.67708 44.7399C8.98169 44.2136 9.54852 43.8867 10.1564 43.8867H22.1097C22.7175 43.8867 23.2845 44.2138 23.5889 44.7399L29.5607 55.062C29.866 55.5901 29.866 56.2458 29.5607 56.7738Z" fill="#333333"/>
</svg>
