<svg width="45" height="70" viewBox="0 0 45 70" fill="none" xmlns="http://www.w3.org/2000/svg">
<path d="M43.3125 2.1875H34.5625V1.09375C34.5625 0.489727 34.0728 0 33.4688 0C32.8647 0 32.375 0.489727 32.375 1.09375V2.1875H23.625V1.09375C23.625 0.489727 23.1353 0 22.5312 0C21.9272 0 21.4375 0.489727 21.4375 1.09375V2.1875H12.6875V1.09375C12.6875 0.489727 12.1978 0 11.5938 0C10.9897 0 10.5 0.489727 10.5 1.09375V2.1875H1.75C1.14598 2.1875 0.65625 2.67723 0.65625 3.28125V68.9062C0.65625 69.5103 1.14598 70 1.75 70H43.3125C43.9165 70 44.4062 69.5103 44.4062 68.9062V3.28125C44.4062 2.67723 43.9165 2.1875 43.3125 2.1875ZM42.2188 67.8125H2.84375V4.375H10.5V7.65625C10.5 8.26027 10.9897 8.75 11.5938 8.75C12.1978 8.75 12.6875 8.26027 12.6875 7.65625V4.375H21.4375V7.65625C21.4375 8.26027 21.9272 8.75 22.5312 8.75C23.1353 8.75 23.625 8.26027 23.625 7.65625V4.375H32.375V7.65625C32.375 8.26027 32.8647 8.75 33.4688 8.75C34.0728 8.75 34.5625 8.26027 34.5625 7.65625V4.375H42.2188V67.8125Z" fill="#333333"/>
</svg>
