<svg width="22" height="43" viewBox="0 0 22 43" fill="none" xmlns="http://www.w3.org/2000/svg">
<path d="M21.7436 14.9404L11.8998 0.721693C11.7992 0.576179 11.6648 0.457246 11.5081 0.375096C11.3514 0.292946 11.1771 0.250031 11.0002 0.250031C10.8233 0.250031 10.649 0.292946 10.4923 0.375096C10.3356 0.457246 10.2012 0.576179 10.1006 0.721693L0.256837 14.9404C0.160207 15.08 0.0974177 15.2401 0.0734487 15.4081C0.0494796 15.5761 0.0649906 15.7474 0.118752 15.9084L2.92012 24.3125H2.2502C1.96012 24.3125 1.68192 24.4277 1.4768 24.6329C1.27168 24.838 1.15645 25.1162 1.15645 25.4063V28.6875C1.15645 28.9776 1.27168 29.2558 1.4768 29.4609C1.68192 29.666 1.96012 29.7813 2.2502 29.7813H3.34395V41.8125C3.34395 42.1026 3.45918 42.3808 3.6643 42.5859C3.86942 42.791 4.14762 42.9063 4.4377 42.9063H17.5627C17.8528 42.9063 18.131 42.791 18.3361 42.5859C18.5412 42.3808 18.6564 42.1026 18.6564 41.8125V29.7813H19.7502C20.0403 29.7813 20.3185 29.666 20.5236 29.4609C20.7287 29.2558 20.8439 28.9776 20.8439 28.6875V25.4063C20.8439 25.1162 20.7287 24.838 20.5236 24.6329C20.3185 24.4277 20.0403 24.3125 19.7502 24.3125H19.0803L21.8816 15.9084C21.9354 15.7474 21.9509 15.5761 21.9269 15.4081C21.903 15.2401 21.8402 15.08 21.7436 14.9404V14.9404ZM11.0002 13.375C11.2165 13.375 11.428 13.4392 11.6078 13.5593C11.7877 13.6795 11.9279 13.8503 12.0107 14.0502C12.0935 14.2501 12.1151 14.47 12.0729 14.6821C12.0307 14.8943 11.9266 15.0892 11.7736 15.2422C11.6206 15.3951 11.4257 15.4993 11.2136 15.5415C11.0014 15.5837 10.7815 15.562 10.5816 15.4793C10.3818 15.3965 10.211 15.2563 10.0908 15.0764C9.97059 14.8966 9.90645 14.6851 9.90645 14.4688C9.90684 14.1788 10.0222 13.9008 10.2272 13.6958C10.4323 13.4908 10.7102 13.3754 11.0002 13.375V13.375ZM16.4689 40.7188H5.53145V29.7813H16.4689V40.7188ZM18.6564 27.5938H3.34395V26.5H18.6564V27.5938ZM16.7738 24.3125H5.22656L2.36641 15.7361L9.90645 4.84513V11.1875C9.90704 11.2489 9.91252 11.3102 9.92285 11.3707C9.19032 11.6253 8.57165 12.1312 8.17659 12.7986C7.78154 13.4659 7.63562 14.2517 7.76474 15.0164C7.89386 15.7811 8.28966 16.4753 8.88193 16.976C9.47421 17.4766 10.2247 17.7513 11.0002 17.7513C11.7757 17.7513 12.5262 17.4766 13.1185 16.976C13.7107 16.4753 14.1065 15.7811 14.2357 15.0164C14.3648 14.2517 14.2189 13.4659 13.8238 12.7986C13.4287 12.1312 12.8101 11.6253 12.0775 11.3707C12.0879 11.3102 12.0934 11.2489 12.0939 11.1875V4.84513L19.634 15.7361L16.7738 24.3125Z" fill="#333333"/>
</svg>
